<?xml version="1.0" standalone="no"?>
<!DOCTYPE svg PUBLIC "-//W3C//DTD SVG 20010904//EN"
 "http://www.w3.org/TR/2001/REC-SVG-20010904/DTD/svg10.dtd">
<svg version="1.0" xmlns="http://www.w3.org/2000/svg"
 width="444.000000pt" height="377.000000pt" viewBox="0 0 444.000000 377.000000"
 preserveAspectRatio="xMidYMid meet">

<g transform="translate(0.000000,377.000000) scale(0.100000,-0.100000)"
fill="#000000" stroke="none">
<path d="M602 3759 c-152 -14 -330 -140 -443 -314 -54 -83 -149 -257 -149
-273 0 -9 73 -12 275 -12 l275 0 0 -23 c0 -13 -15 -109 -34 -213 -19 -104 -53
-295 -75 -424 -22 -129 -56 -323 -75 -430 -19 -107 -53 -301 -76 -430 -22
-129 -50 -284 -61 -345 -11 -60 -31 -173 -44 -250 -13 -77 -40 -230 -60 -340
-48 -260 -46 -328 10 -442 43 -87 125 -177 193 -212 99 -50 30 -49 1817 -50
1156 0 1687 3 1725 10 176 35 356 206 500 474 23 44 47 84 51 89 5 6 9 14 9
18 0 4 -126 8 -280 8 -260 0 -280 1 -280 18 0 9 9 64 20 122 11 58 27 143 35
190 8 47 35 202 60 345 26 143 53 296 60 340 8 44 23 134 35 200 34 187 57
320 80 450 11 66 36 208 55 315 86 479 104 578 110 620 4 25 27 155 52 290 25
135 46 250 46 257 2 9 -440 12 -1878 15 -1034 2 -1913 1 -1953 -3z m1967 -607
c61 -7 64 -8 67 -36 2 -16 5 -299 8 -630 l5 -601 33 3 c106 8 181 78 272 253
112 217 170 324 186 341 13 15 48 17 284 21 282 4 312 2 319 -17 5 -12 -103
-233 -246 -504 -90 -173 -136 -230 -238 -297 -58 -38 -68 -49 -58 -61 6 -8 16
-14 21 -14 5 0 41 -21 80 -47 76 -50 141 -125 194 -222 53 -99 289 -566 291
-578 2 -6 -5 -14 -15 -17 -9 -3 -138 -7 -287 -8 -198 -2 -276 0 -291 9 -13 7
-60 87 -114 195 -168 332 -218 399 -314 417 -94 18 -106 18 -116 6 -6 -7 -11
-134 -12 -316 l-3 -304 -280 0 -280 0 -7 110 c-6 81 -4 1950 1 2257 1 26 6 38
19 40 31 8 416 7 481 0z m-984 -646 c275 -58 310 -68 319 -93 5 -13 -20 -107
-101 -380 -9 -29 -21 -57 -27 -62 -7 -6 -30 -4 -63 4 -183 48 -420 80 -511 69
-80 -9 -88 -13 -107 -48 -18 -33 -18 -35 -1 -61 23 -35 83 -61 197 -86 146
-32 299 -76 364 -104 70 -31 167 -96 202 -133 133 -149 158 -387 62 -589 -37
-79 -138 -186 -209 -224 -144 -76 -255 -100 -461 -100 -194 1 -342 20 -573 77
-54 13 -107 24 -116 24 -10 0 -28 8 -41 18 l-22 19 22 89 c12 49 34 130 48
179 15 50 27 97 28 106 2 25 43 89 57 89 7 -1 31 -8 53 -16 59 -22 232 -61
327 -74 46 -6 115 -15 153 -21 96 -13 161 0 197 40 32 36 34 50 12 92 -20 39
-38 46 -294 114 -387 101 -508 185 -560 390 -24 94 -25 165 -4 276 20 109 53
170 133 250 94 93 213 155 349 179 26 5 137 7 247 5 166 -3 220 -8 320 -29z"/>
</g>
</svg>
